<?xml version="1.0" encoding="utf-8"?>
<!-- Generator: Adobe Illustrator 22.1.0, SVG Export Plug-In . SVG Version: 6.00 Build 0)  -->
<svg version="1.1" id="Layer_1" xmlns="http://www.w3.org/2000/svg" xmlns:xlink="http://www.w3.org/1999/xlink" x="0px" y="0px"
	 width="40.9px" height="25.9px" viewBox="0 0 40.9 25.9" style="enable-background:new 0 0 40.9 25.9;" xml:space="preserve">
<style type="text/css">
	.st0{fill:#00A099;}
	.st1{fill:#DEDEDE;}
	.st2{fill:#FFFFFF;}
</style>
<g>
	<path class="st0" d="M38.3,24.4h-36c-0.5,0-1-0.5-1-1v-21c0-0.5,0.4-1,1-1h36c0.5,0,1,0.4,1,1v21C39.3,24,38.9,24.4,38.3,24.4z"/>
	<path class="st1" d="M37.5,25.3H3.3c-1.4,0-2.5-1.1-2.5-2.5V3.1c0-1.4,1.1-2.5,2.5-2.5h34.2c1.4,0,2.5,1.1,2.5,2.5v19.6
		C40.1,24.2,38.9,25.3,37.5,25.3z M3.3,1.4c-0.9,0-1.7,0.8-1.7,1.7v19.6c0,0.9,0.8,1.7,1.7,1.7h34.2c0.9,0,1.7-0.8,1.7-1.7V3.1
		c0-0.9-0.8-1.7-1.7-1.7C37.5,1.4,3.3,1.4,3.3,1.4z"/>
</g>
<path class="st0" d="M-57.8,21.5H-16v-26h-41.8V21.5z"/>
<g>
	<path class="st2" d="M-49,17.9c0.1-0.1,0.3-0.3,0.5-0.3c0.2-0.1,0.4-0.1,0.6-0.1c0.2,0,0.4,0,0.6,0.1c0.2,0.1,0.4,0.2,0.5,0.3
		l0.2,0.2l-0.4,0.4l-0.2-0.2c-0.1-0.1-0.2-0.1-0.3-0.2c-0.1,0-0.2-0.1-0.3-0.1c-0.1,0-0.2,0-0.3,0.1c-0.1,0-0.2,0.1-0.3,0.2
		c-0.1,0.1-0.2,0.2-0.2,0.3c0,0.1-0.1,0.2-0.1,0.3c0,0.1,0,0.2,0.1,0.3c0,0.1,0.1,0.2,0.2,0.3c0.2,0.2,0.4,0.3,0.6,0.3
		c0.1,0,0.2,0,0.3-0.1c0.1,0,0.2-0.1,0.3-0.2l0.2-0.2l0.4,0.4l-0.2,0.2c-0.1,0.1-0.3,0.3-0.5,0.3c-0.2,0.1-0.4,0.1-0.6,0.1
		c-0.2,0-0.4,0-0.6-0.1c-0.2-0.1-0.4-0.2-0.5-0.3c-0.1-0.1-0.3-0.3-0.3-0.5c-0.1-0.2-0.1-0.4-0.1-0.6c0-0.2,0-0.4,0.1-0.6
		C-49.2,18.2-49.1,18-49,17.9"/>
	<path class="st2" d="M-44,19.4l0.4,0.4l-0.2,0.2c-0.4,0.4-1.1,0.6-1.6,0.3c-0.2-0.1-0.4-0.2-0.5-0.3c-0.1-0.1-0.3-0.3-0.3-0.5
		c-0.1-0.2-0.1-0.4-0.1-0.6c0-0.4,0.2-0.8,0.4-1.1c0.1-0.1,0.3-0.3,0.5-0.3c0.4-0.1,0.8-0.1,1.1,0c0.2,0.1,0.4,0.2,0.5,0.3l0.2,0.2
		l-1.7,1.7c0.4,0.2,0.8,0.1,1-0.2L-44,19.4z M-45.5,18.3c-0.2,0.2-0.3,0.4-0.3,0.6c0,0.1,0,0.3,0.1,0.4c0.1-0.1,0.1-0.1,0.2-0.2
		c0.1-0.1,0.2-0.2,0.3-0.3c0.1-0.1,0.2-0.2,0.4-0.4c0.1-0.1,0.2-0.2,0.3-0.3c-0.2-0.1-0.4-0.1-0.5-0.1
		C-45.2,18.1-45.4,18.2-45.5,18.3"/>
	<path class="st2" d="M-43.3,18.4c0.1-0.2,0.2-0.3,0.3-0.5c0.1-0.1,0.3-0.2,0.5-0.3c0.2-0.1,0.4-0.1,0.6-0.1c0.2,0,0.4,0,0.6,0.1
		c0.4,0.2,0.7,0.4,0.8,0.8c0.1,0.2,0.1,0.4,0.1,0.6v1.5H-41v-1.5c0-0.1,0-0.2-0.1-0.4c0-0.1-0.1-0.2-0.2-0.3
		c-0.1-0.1-0.2-0.2-0.3-0.2c-0.2-0.1-0.5-0.1-0.7,0c-0.1,0-0.2,0.1-0.3,0.2c-0.1,0.1-0.2,0.2-0.2,0.3c-0.1,0.1-0.1,0.2-0.1,0.4v1.5
		h-0.6V19C-43.4,18.7-43.4,18.5-43.3,18.4"/>
	<path class="st2" d="M-39.7,17.9c0.1-0.1,0.3-0.3,0.5-0.3c0.2-0.1,0.4-0.1,0.6-0.1c0.2,0,0.4,0,0.6,0.1c0.2,0.1,0.4,0.2,0.5,0.3
		l0.2,0.2l-0.4,0.4l-0.2-0.2c-0.1-0.1-0.2-0.1-0.3-0.2c-0.1,0-0.2-0.1-0.3-0.1c-0.1,0-0.2,0-0.3,0.1c-0.1,0-0.2,0.1-0.3,0.2
		c-0.1,0.1-0.2,0.2-0.2,0.3c0,0.1-0.1,0.2-0.1,0.3c0,0.1,0,0.2,0.1,0.3c0.1,0.3,0.5,0.6,0.8,0.6c0.1,0,0.2,0,0.4-0.1
		c0.1,0,0.2-0.1,0.3-0.2l0.2-0.2l0.4,0.4l-0.2,0.2c-0.1,0.1-0.3,0.3-0.5,0.3c-0.2,0.1-0.4,0.1-0.6,0.1c-0.4,0-0.8-0.2-1.1-0.4
		c-0.1-0.1-0.3-0.3-0.3-0.5c-0.1-0.2-0.1-0.4-0.1-0.6c0-0.2,0-0.4,0.1-0.6C-40,18.2-39.9,18-39.7,17.9"/>
	<path class="st2" d="M-37.1,19c0-0.4,0.2-0.8,0.4-1.1c0.1-0.1,0.3-0.2,0.5-0.3c0.2-0.1,0.4-0.1,0.6-0.1c0.2,0,0.4,0,0.6,0.1
		c0.2,0.1,0.3,0.2,0.5,0.3c0.3,0.3,0.4,0.7,0.4,1.1c0,0.2,0,0.4-0.1,0.6c-0.1,0.2-0.2,0.3-0.3,0.5c-0.1,0.1-0.3,0.2-0.5,0.3
		c-0.4,0.2-0.8,0.2-1.2,0c-0.2-0.1-0.3-0.2-0.5-0.3c-0.1-0.1-0.2-0.3-0.3-0.5C-37.1,19.4-37.1,19.2-37.1,19 M-36.5,19
		c0,0.1,0,0.2,0.1,0.4c0,0.1,0.1,0.2,0.2,0.3c0.1,0.1,0.2,0.2,0.3,0.2c0.1,0,0.2,0.1,0.4,0.1c0.1,0,0.2,0,0.4-0.1
		c0.1,0,0.2-0.1,0.3-0.2c0.3-0.3,0.3-0.7,0.2-1c0-0.1-0.1-0.2-0.2-0.3c-0.1-0.1-0.2-0.2-0.3-0.2c-0.1-0.1-0.2-0.1-0.4-0.1
		c-0.1,0-0.2,0-0.4,0.1c-0.1,0-0.2,0.1-0.3,0.2c-0.1,0.1-0.2,0.2-0.2,0.3C-36.5,18.7-36.5,18.8-36.5,19"/>
	<path class="st2" d="M-31.2,17.4V18H-33c-0.1,0-0.2,0-0.2,0.1c-0.1,0.1-0.1,0.1-0.1,0.2c0,0.1,0,0.2,0.1,0.2
		c0.1,0.1,0.1,0.1,0.2,0.1h1.2c0.1,0,0.2,0,0.4,0.1c0.1,0,0.2,0.1,0.3,0.2c0.1,0.1,0.2,0.2,0.2,0.3c0.1,0.2,0.1,0.5,0,0.7
		c0,0.1-0.1,0.2-0.2,0.3c-0.1,0.1-0.2,0.1-0.3,0.2c-0.1,0-0.2,0.1-0.4,0.1h-1.8v-0.6h1.8c0.1,0,0.2,0,0.2-0.1
		c0.1-0.1,0.1-0.1,0.1-0.2c0-0.2-0.1-0.3-0.3-0.3c0,0,0,0,0,0H-33c-0.1,0-0.2,0-0.4-0.1c-0.1,0-0.2-0.1-0.3-0.2
		c-0.1-0.1-0.2-0.2-0.2-0.3c-0.1-0.2-0.1-0.5,0-0.7c0-0.1,0.1-0.2,0.2-0.3c0.1-0.1,0.2-0.1,0.3-0.2c0.1,0,0.2-0.1,0.4-0.1
		L-31.2,17.4z"/>
	<path class="st2" d="M-27.7,17.4v1.5c0,0.4-0.2,0.8-0.4,1.1c-0.1,0.1-0.3,0.3-0.5,0.3c-0.2,0.1-0.4,0.1-0.6,0.1
		c-0.2,0-0.4,0-0.6-0.1c-0.2-0.1-0.3-0.2-0.5-0.3c-0.1-0.1-0.3-0.3-0.3-0.5c-0.1-0.2-0.1-0.4-0.1-0.6v-1.5h0.6v1.5
		c0,0.1,0,0.2,0.1,0.4c0,0.1,0.1,0.2,0.2,0.3c0.2,0.2,0.4,0.3,0.6,0.3c0.1,0,0.2,0,0.4-0.1c0.1,0,0.2-0.1,0.3-0.2
		c0.1-0.1,0.2-0.2,0.2-0.3c0-0.1,0.1-0.2,0.1-0.4v-1.5H-27.7z"/>
	<path class="st2" d="M-24.5,16.2v2.7c0,0.2,0,0.4-0.1,0.6c-0.1,0.2-0.2,0.3-0.3,0.5c-0.1,0.1-0.3,0.3-0.5,0.3
		c-0.4,0.2-0.8,0.2-1.2,0c-0.2-0.1-0.3-0.2-0.5-0.3c-0.1-0.1-0.3-0.3-0.3-0.5c-0.2-0.4-0.2-0.8,0-1.2c0.1-0.2,0.2-0.3,0.3-0.5
		c0.1-0.1,0.3-0.2,0.5-0.3c0.2-0.1,0.4-0.1,0.6-0.1h0.9v-1.2L-24.5,16.2z M-26,19.8c0.1,0,0.2,0,0.4-0.1c0.1,0,0.2-0.1,0.3-0.2
		c0.1-0.1,0.1-0.2,0.2-0.3c0-0.1,0.1-0.2,0.1-0.4V18H-26c-0.1,0-0.2,0-0.4,0.1c-0.1,0-0.2,0.1-0.3,0.2c-0.3,0.3-0.3,0.7-0.2,1
		c0,0.1,0.1,0.2,0.2,0.3c0.1,0.1,0.2,0.1,0.3,0.2C-26.2,19.8-26.1,19.8-26,19.8"/>
</g>
<g>
	<path class="st2" d="M-42.5,5.2V3.7C-42.6,4-42.8,4.3-43,4.5c-0.4,0.3-1.3,1-2.7,1c-0.4,0-0.8-0.1-1.2-0.2c-1-0.2-1.8-0.9-2.4-1.8
		c-0.3-0.6-0.5-1.2-0.5-1.9c0-0.4,0.1-1.5,0.9-2.5c0.5-0.5,1.5-1.4,3.2-1.4c0.4,0,1.8,0.1,2.8,0.9c0.3,0.3,0.6,0.6,0.9,1l-0.7,0.4
		c-0.1-0.2-0.2-0.3-0.3-0.5c-0.7-0.8-1.7-1.1-2.7-1.1c-0.5,0-0.9,0.1-1.3,0.2c-1.3,0.5-2,1.6-2,3c0,0.3,0,1.3,0.7,2
		c0.4,0.5,1.2,1.1,2.7,1.1c0.4,0,0.7,0,1.1-0.1c0.9-0.3,1.7-0.9,2-1.7c0.1-0.3,0.1-0.6,0.2-0.9h-3.8V1.4h4.5v3.8L-42.5,5.2z"/>
	<path class="st2" d="M-40.3,5.2V-2h0.7v7.2L-40.3,5.2z"/>
	<path class="st2" d="M-37.7-1.2l0.5,2.5l5.2-1.1l0.1,0.6L-37,1.9l0.7,3.4L-37,5.5l-1.5-7.1L-32-3l0.1,0.6L-37.7-1.2z"/>
	<path class="st2" d="M-27.1-1.4v6.6h-0.7v-6.6h-3.2V-2h7v0.6H-27.1z"/>
	<path class="st2" d="M-46.9,12.7c-0.5,0.3-1.3,0.8-2.6,0.8c-1.3,0-2.1-0.4-2.5-0.7c-1-0.7-1.6-1.9-1.5-3.1c0-0.9,0.3-1.7,0.8-2.4
		c1.1-1.3,2.7-1.4,3.2-1.4c0.5,0,1.8,0.1,2.8,1c0.3,0.3,0.6,0.6,0.8,1l-0.6,0.3c-0.2-0.3-0.3-0.5-0.6-0.8c-0.8-0.9-2-0.9-2.4-0.9
		c-0.4,0-1.6,0.1-2.5,1c-0.8,0.8-0.9,1.9-0.9,2.2c0,0.8,0.3,1.6,0.9,2.2c0.9,0.9,2,0.9,2.4,0.9c0.5,0,1.7-0.1,2.6-1.1
		c0.2-0.2,0.3-0.4,0.5-0.7l0.6,0.3C-46.1,11.9-46.4,12.3-46.9,12.7z"/>
	<path class="st2" d="M-38.3,13.3l-0.9-1.9h-4.7l-0.9,1.9h-0.7l3.6-7.2h0.8l3.6,7.2L-38.3,13.3z M-41.6,6.7l-2,4.1h4.1L-41.6,6.7z"
		/>
	<path class="st2" d="M-29.7,13.3l-2.9-3.2h-3.3v3.2h-0.7V6.1h5c0.2,0,0.3,0,0.5,0c0.3,0,1.1,0.1,1.7,0.8c0.2,0.3,0.3,0.7,0.3,1.1
		c0,0.3-0.1,1-0.7,1.6c-0.5,0.4-1.2,0.4-1.8,0.5l2.9,3.2L-29.7,13.3z M-30.4,6.9c-0.4-0.2-0.8-0.2-1.2-0.2h-4.3v2.8h3.9
		c0.2,0,0.3,0,0.5,0c0.6,0,1.2-0.1,1.5-0.7c0.1-0.2,0.2-0.5,0.2-0.7C-29.9,7.9-29.9,7.3-30.4,6.9z"/>
	<path class="st2" d="M-20.4,10.9c-0.2,0.9-0.8,1.7-1.7,2.1c-0.7,0.3-1.5,0.4-2.3,0.4h-3.3V6.1h3.6c0.2,0,0.4,0,0.6,0
		c0.7,0,1.4,0.3,1.9,0.7c1.2,1,1.2,2.4,1.2,2.9C-20.2,10.1-20.3,10.5-20.4,10.9z M-22.7,6.9c-0.4-0.2-0.9-0.2-1.3-0.2h-2.9v6h2.3
		c1,0,2.1,0,2.8-0.7c0.4-0.4,0.8-1,0.8-2.2C-21,8.6-21.5,7.3-22.7,6.9L-22.7,6.9z"/>
</g>
<g>
	<path class="st2" d="M9.9,20.6c0.1-0.1,0.3-0.2,0.4-0.3c0.2-0.1,0.3-0.1,0.5-0.1c0.2,0,0.3,0,0.5,0.1c0.2,0.1,0.3,0.2,0.4,0.3
		l0.2,0.2l-0.4,0.4l-0.2-0.2c-0.1-0.1-0.2-0.1-0.3-0.2c-0.1,0-0.2-0.1-0.3-0.1c-0.1,0-0.2,0-0.3,0.1c-0.1,0-0.2,0.1-0.3,0.2
		c-0.1,0.1-0.1,0.2-0.2,0.3c0,0.1-0.1,0.2-0.1,0.3c0,0.1,0,0.2,0.1,0.3c0,0.1,0.1,0.2,0.2,0.3c0.1,0.2,0.4,0.2,0.6,0.2
		c0.1,0,0.2,0,0.3-0.1c0.1,0,0.2-0.1,0.3-0.2l0.2-0.2l0.4,0.4l-0.2,0.2c-0.1,0.1-0.3,0.2-0.4,0.3c-0.2,0.1-0.3,0.1-0.5,0.1
		c-0.2,0-0.3,0-0.5-0.1c-0.2-0.1-0.3-0.2-0.4-0.3c-0.1-0.1-0.2-0.3-0.3-0.4c-0.1-0.2-0.1-0.3-0.1-0.5c0-0.2,0-0.3,0.1-0.5
		C9.7,20.8,9.8,20.7,9.9,20.6"/>
	<path class="st2" d="M14.2,21.9l0.4,0.4l-0.2,0.2c-0.4,0.4-0.9,0.5-1.4,0.3c-0.2-0.1-0.3-0.2-0.4-0.3c-0.1-0.1-0.2-0.3-0.3-0.4
		c-0.1-0.2-0.1-0.3-0.1-0.5c0-0.3,0.1-0.7,0.4-0.9c0.1-0.1,0.3-0.2,0.4-0.3c0.3-0.1,0.7-0.1,1,0c0.2,0.1,0.3,0.2,0.4,0.3l0.2,0.2
		l-1.5,1.5c0.3,0.2,0.7,0.1,0.9-0.2L14.2,21.9z M12.9,20.9c-0.2,0.1-0.2,0.4-0.2,0.6c0,0.1,0,0.2,0.1,0.3c0,0,0.1-0.1,0.2-0.2
		s0.2-0.2,0.3-0.3c0.1-0.1,0.2-0.2,0.3-0.3c0.1-0.1,0.2-0.2,0.2-0.2c-0.1-0.1-0.3-0.1-0.5-0.1C13.2,20.7,13,20.8,12.9,20.9"/>
	<path class="st2" d="M14.9,21c0.1-0.2,0.2-0.3,0.3-0.4c0.1-0.1,0.3-0.2,0.4-0.3c0.2-0.1,0.3-0.1,0.5-0.1c0.2,0,0.4,0,0.5,0.1
		c0.3,0.1,0.6,0.4,0.7,0.7c0.1,0.2,0.1,0.3,0.1,0.5v1.3h-0.5v-1.3c0-0.1,0-0.2-0.1-0.3c0-0.1-0.1-0.2-0.2-0.3
		c-0.1-0.1-0.2-0.1-0.3-0.2c-0.2-0.1-0.4-0.1-0.6,0c-0.1,0-0.2,0.1-0.2,0.2c-0.1,0.1-0.1,0.2-0.2,0.3c0,0.1-0.1,0.2-0.1,0.3v1.3
		h-0.5v-1.3C14.8,21.3,14.8,21.1,14.9,21"/>
	<path class="st2" d="M18,20.6c0.1-0.1,0.3-0.2,0.4-0.3c0.2-0.1,0.3-0.1,0.5-0.1c0.2,0,0.3,0,0.5,0.1c0.2,0.1,0.3,0.2,0.4,0.3
		l0.2,0.2l-0.4,0.4l-0.2-0.2c-0.1-0.1-0.2-0.1-0.3-0.2c-0.1,0-0.2-0.1-0.3-0.1c-0.1,0-0.2,0-0.3,0.1c-0.1,0-0.2,0.1-0.3,0.2
		c-0.1,0.1-0.1,0.2-0.2,0.3c0,0.1-0.1,0.2-0.1,0.3c0,0.1,0,0.2,0.1,0.3c0.1,0.3,0.4,0.5,0.7,0.5c0.1,0,0.2,0,0.3-0.1
		c0.1,0,0.2-0.1,0.3-0.2l0.2-0.2l0.4,0.4l-0.2,0.2c-0.1,0.1-0.3,0.2-0.4,0.3c-0.2,0.1-0.3,0.1-0.5,0.1c-0.4,0-0.7-0.1-0.9-0.4
		c-0.1-0.1-0.2-0.3-0.3-0.4c-0.1-0.2-0.1-0.3-0.1-0.5c0-0.2,0-0.3,0.1-0.5C17.8,20.8,17.9,20.7,18,20.6"/>
	<path class="st2" d="M20.2,21.5c0-0.3,0.1-0.7,0.4-0.9c0.1-0.1,0.3-0.2,0.4-0.3c0.2-0.1,0.3-0.1,0.5-0.1c0.2,0,0.4,0,0.5,0.1
		c0.2,0.1,0.3,0.2,0.4,0.3c0.2,0.2,0.4,0.6,0.4,0.9c0,0.2,0,0.3-0.1,0.5c-0.1,0.2-0.2,0.3-0.3,0.4c-0.1,0.1-0.3,0.2-0.4,0.3
		c-0.3,0.1-0.7,0.1-1,0c-0.2-0.1-0.3-0.2-0.4-0.3c-0.1-0.1-0.2-0.3-0.3-0.4C20.3,21.8,20.2,21.7,20.2,21.5 M20.7,21.5
		c0,0.1,0,0.2,0.1,0.3c0,0.1,0.1,0.2,0.2,0.2c0.1,0.1,0.2,0.1,0.3,0.2c0.1,0,0.2,0.1,0.3,0.1c0.1,0,0.2,0,0.3-0.1
		c0.1,0,0.2-0.1,0.3-0.2c0.2-0.2,0.3-0.6,0.2-0.9c0-0.1-0.1-0.2-0.2-0.2c-0.1-0.1-0.2-0.1-0.3-0.2c-0.1,0-0.2-0.1-0.3-0.1
		c-0.1,0-0.2,0-0.3,0.1c-0.1,0-0.2,0.1-0.3,0.2c-0.1,0.1-0.1,0.2-0.2,0.2C20.8,21.3,20.7,21.4,20.7,21.5"/>
	<path class="st2" d="M25.4,20.2v0.5h-1.6c-0.1,0-0.1,0-0.2,0.1c-0.1,0.1-0.1,0.1-0.1,0.2c0,0.1,0,0.1,0.1,0.2
		c0.1,0.1,0.1,0.1,0.2,0.1h1c0.1,0,0.2,0,0.3,0.1c0.1,0,0.2,0.1,0.3,0.2c0.1,0.1,0.1,0.2,0.2,0.2c0.1,0.2,0.1,0.4,0,0.6
		c0,0.1-0.1,0.2-0.2,0.3c-0.1,0.1-0.2,0.1-0.3,0.2c-0.1,0-0.2,0.1-0.3,0.1h-1.6v-0.5h1.6c0.1,0,0.1,0,0.2-0.1c0.1,0,0.1-0.1,0.1-0.2
		c0-0.1-0.1-0.3-0.3-0.3c0,0,0,0,0,0h-1.1c-0.1,0-0.2,0-0.3-0.1c-0.1,0-0.2-0.1-0.2-0.2c-0.1-0.1-0.1-0.2-0.2-0.3
		c-0.1-0.2-0.1-0.4,0-0.6c0-0.1,0.1-0.2,0.2-0.2c0.1-0.1,0.2-0.1,0.2-0.2c0.1,0,0.2-0.1,0.3-0.1L25.4,20.2z"/>
	<path class="st2" d="M28.5,20.2v1.3c0,0.4-0.1,0.7-0.4,0.9c-0.1,0.1-0.3,0.2-0.4,0.3c-0.2,0.1-0.3,0.1-0.5,0.1
		c-0.2,0-0.3,0-0.5-0.1c-0.2-0.1-0.3-0.2-0.4-0.3c-0.1-0.1-0.2-0.3-0.3-0.4c-0.1-0.2-0.1-0.3-0.1-0.5v-1.3h0.5v1.3
		c0,0.1,0,0.2,0.1,0.3c0,0.1,0.1,0.2,0.2,0.3c0.2,0.1,0.4,0.2,0.6,0.2c0.1,0,0.2,0,0.3-0.1c0.1,0,0.2-0.1,0.3-0.2
		c0.1-0.1,0.1-0.2,0.2-0.3c0-0.1,0.1-0.2,0.1-0.3v-1.3H28.5z"/>
	<path class="st2" d="M31.3,19.1v2.4c0,0.2,0,0.3-0.1,0.5c-0.1,0.2-0.2,0.3-0.3,0.4c-0.1,0.1-0.3,0.2-0.4,0.3c-0.3,0.1-0.7,0.1-1,0
		c-0.2-0.1-0.3-0.2-0.4-0.3c-0.1-0.1-0.2-0.3-0.3-0.4c-0.1-0.3-0.1-0.7,0-1c0.1-0.2,0.2-0.3,0.3-0.4c0.1-0.1,0.3-0.2,0.4-0.3
		c0.2-0.1,0.3-0.1,0.5-0.1h0.8v-1.1L31.3,19.1z M29.9,22.3c0.1,0,0.2,0,0.3-0.1c0.1,0,0.2-0.1,0.3-0.2c0.1-0.1,0.1-0.2,0.2-0.3
		c0-0.1,0.1-0.2,0.1-0.3v-0.8h-0.8c-0.1,0-0.2,0-0.3,0.1c-0.1,0-0.2,0.1-0.3,0.2c-0.2,0.2-0.3,0.6-0.2,0.9c0,0.1,0.1,0.2,0.2,0.3
		c0.1,0.1,0.2,0.1,0.3,0.2C29.7,22.2,29.8,22.3,29.9,22.3"/>
</g>
<g>
	<path class="st2" d="M15.6,10.9V9.6c-0.1,0.2-0.3,0.4-0.5,0.6c-0.3,0.3-1.1,0.8-2.4,0.8c-0.4,0-0.7,0-1.1-0.1
		c-0.9-0.2-1.6-0.8-2-1.5C9.3,8.9,9.2,8.4,9.2,7.8c0-0.4,0.1-1.3,0.8-2.2c0.4-0.5,1.3-1.2,2.8-1.2c0.3,0,1.5,0,2.4,0.8
		c0.3,0.3,0.6,0.6,0.8,0.9l-0.6,0.3c-0.1-0.2-0.2-0.3-0.3-0.4c-0.6-0.7-1.5-1-2.4-1c-0.4,0-0.8,0.1-1.2,0.2
		c-1.1,0.4-1.7,1.4-1.7,2.6c0,0.3,0,1.1,0.6,1.8c0.3,0.4,1.1,1,2.3,1c0.3,0,0.6,0,0.9-0.1c0.7-0.2,1.4-0.8,1.7-1.5
		c0.1-0.2,0.1-0.5,0.1-0.7h-3.3V7.6h3.9v3.3L15.6,10.9z"/>
	<path class="st2" d="M17.5,10.9V4.6h0.6v6.3L17.5,10.9z"/>
	<path class="st2" d="M19.8,5.3l0.5,2.2l4.5-0.9l0.1,0.5l-4.5,0.9l0.6,2.9l-0.6,0.1L19.1,5l5.7-1.2l0.1,0.5L19.8,5.3z"/>
	<path class="st2" d="M28.9,5.1v5.8h-0.6V5.1h-2.8V4.6h6.1v0.5H28.9z"/>
	<path class="st2" d="M11.7,17.4c-0.4,0.3-1.1,0.7-2.3,0.7c-1.1,0-1.8-0.4-2.2-0.6c-0.9-0.6-1.3-1.6-1.3-2.7c0-0.8,0.2-1.5,0.7-2.1
		c1-1.2,2.3-1.3,2.8-1.3c0.4,0,1.6,0.1,2.5,0.9c0.3,0.2,0.5,0.5,0.7,0.8L12,13.5c-0.1-0.2-0.3-0.5-0.5-0.7C10.8,12.1,9.8,12,9.5,12
		c-0.3,0-1.4,0.1-2.1,0.8c-0.7,0.7-0.8,1.6-0.8,2c0,0.7,0.3,1.4,0.8,1.9c0.8,0.8,1.8,0.8,2.1,0.8c0.4,0,1.5-0.1,2.3-1
		c0.2-0.2,0.3-0.4,0.4-0.6l0.5,0.3C12.5,16.7,12.1,17.1,11.7,17.4z"/>
	<path class="st2" d="M19.2,18l-0.8-1.6h-4.1L13.6,18h-0.6l3.1-6.3h0.7l3.2,6.3L19.2,18z M16.4,12.2l-1.8,3.6h3.6L16.4,12.2z"/>
	<path class="st2" d="M26.7,18l-2.5-2.8h-2.9V18h-0.6v-6.3H25c0.2,0,0.3,0,0.5,0c0.3,0,1,0,1.4,0.7c0.2,0.3,0.3,0.6,0.3,1
		c0,0.2,0,0.9-0.6,1.4c-0.5,0.3-1,0.4-1.6,0.4l2.5,2.8L26.7,18z M26.1,12.4c-0.3-0.2-0.7-0.2-1-0.2h-3.8v2.4h3.4c0.1,0,0.3,0,0.4,0
		c0.5,0,1.1-0.1,1.3-0.6c0.1-0.2,0.1-0.4,0.1-0.6C26.6,13.2,26.5,12.7,26.1,12.4z"/>
	<path class="st2" d="M34.8,15.8c-0.2,0.8-0.7,1.5-1.5,1.8c-0.6,0.3-1.3,0.3-2,0.3h-2.9v-6.3h3.1c0.2,0,0.4,0,0.6,0
		c0.6,0,1.2,0.2,1.7,0.6c1,0.8,1.1,2.1,1.1,2.5C34.9,15.2,34.9,15.5,34.8,15.8z M32.8,12.4c-0.4-0.1-0.8-0.2-1.1-0.2h-2.5v5.2h2
		c0.8,0,1.8,0,2.5-0.6c0.3-0.3,0.7-0.9,0.7-1.9C34.3,13.8,33.8,12.8,32.8,12.4L32.8,12.4z"/>
</g>
</svg>
