<?xml version="1.0" encoding="utf-8"?>
<!-- Generator: Adobe Illustrator 22.1.0, SVG Export Plug-In . SVG Version: 6.00 Build 0)  -->
<svg version="1.1" id="Layer_1" xmlns="http://www.w3.org/2000/svg" xmlns:xlink="http://www.w3.org/1999/xlink" x="0px" y="0px"
	 viewBox="0 0 155.9 103.9" style="enable-background:new 0 0 155.9 103.9;" xml:space="preserve">
<style type="text/css">
	.st0{fill:#D67C1B;}
	.st1{fill:#FFFFFF;}
	.st2{fill:#1169B0;}
	.st3{fill:#C30C24;}
</style>
<path class="st0" d="M144.6,0H11.3C5.1,0,0,5.1,0,11.3v81.3C0,98.9,5.1,104,11.3,104h133.3c6.2,0,11.3-5.1,11.3-11.3V11.3
	C155.9,5.1,150.9,0,144.6,0"/>
<path class="st1" d="M155.9,52l-6.9-6.9V11.4c0-2.5-2-4.5-4.5-4.5H11.4c-2.5,0-4.5,2-4.5,4.5v81.2c0,2.5,2,4.5,4.5,4.5h133.1
	c2.5,0,4.5-2,4.5-4.5V58.9L155.9,52z"/>
<path class="st2" d="M53.6,44.7c0-0.5,0.1-0.9,0.2-1.3c0.2-0.4,0.4-0.8,0.7-1.1c0.3-0.3,0.7-0.6,1.1-0.7c0.8-0.4,1.8-0.4,2.7,0
	c0.4,0.2,0.8,0.4,1.1,0.7c0.3,0.3,0.5,0.7,0.7,1.1c0.2,0.4,0.3,0.8,0.3,1.3v6.4h3v-6.4c0-0.9-0.2-1.7-0.5-2.5
	c-0.3-0.8-0.8-1.5-1.4-2c-0.6-0.6-1.3-1.1-2-1.4c-1.5-0.7-3.4-0.7-5,0c-0.8,0.3-1.5,0.8-2.1,1.4c-0.6,0.6-1,1.2-1.4,2
	c-0.3,0.8-0.5,1.6-0.5,2.5v6.4h3L53.6,44.7L53.6,44.7z"/>
<path class="st2" d="M48.8,40.1c-0.6-0.6-1.3-1.1-2.1-1.4c-1.6-0.6-3.2-0.6-4.8,0c-0.8,0.3-1.5,0.8-2.1,1.4
	c-0.6,0.6-1.1,1.3-1.4,2.1c-0.3,0.8-0.5,1.6-0.5,2.4c0,0.8,0.2,1.6,0.5,2.4c0.3,0.8,0.8,1.5,1.4,2.1c0.6,0.6,1.3,1.1,2.1,1.4
	c0.8,0.3,1.6,0.5,2.5,0.5s1.7-0.2,2.5-0.5c0.8-0.3,1.5-0.8,2.1-1.4l1-1.1L47.7,46l-1,1c-0.5,0.6-1.2,0.9-1.9,1c-0.2,0-0.3,0-0.5,0
	c-0.4,0-0.8-0.1-1.2-0.2l6.7-6.7L48.8,40.1z M44.6,42.2L41,45.8c-0.1-0.4-0.2-0.7-0.2-1.1c0-0.9,0.3-1.8,1-2.4
	c0.5-0.5,1.2-0.9,1.9-1c0.2,0,0.3,0,0.5,0c0.4,0,0.8,0.1,1.2,0.2C45.2,41.6,44.9,41.9,44.6,42.2"/>
<path class="st2" d="M29,42.2c0.3-0.3,0.7-0.6,1.1-0.8c0.8-0.3,1.7-0.3,2.6,0c0.4,0.2,0.8,0.4,1.1,0.8l1.1,1l2.1-2.1l-1-1
	c-0.6-0.6-1.4-1.1-2.1-1.4c-1.6-0.6-3.2-0.6-4.8,0c-0.8,0.3-1.5,0.8-2.1,1.4c-0.6,0.6-1.1,1.3-1.4,2.1C25.2,43,25,43.9,25,44.7
	c0,0.8,0.1,1.6,0.5,2.4s0.8,1.5,1.4,2.1c0.6,0.6,1.3,1.1,2.1,1.4c0.8,0.3,1.6,0.4,2.4,0.4c0.8,0,1.6-0.1,2.4-0.4
	c0.8-0.3,1.5-0.8,2.2-1.4l1-1.1L35,46l-1.1,1c-0.3,0.4-0.7,0.6-1.1,0.8c-0.4,0.2-0.9,0.3-1.3,0.3c-1,0-1.8-0.3-2.4-1
	c-0.4-0.3-0.6-0.7-0.8-1.1c-0.2-0.4-0.3-0.9-0.3-1.3c0-0.4,0.1-0.9,0.3-1.3C28.4,42.9,28.7,42.6,29,42.2"/>
<path class="st2" d="M95,41.2h7.7v-3H95c-0.6,0-1.1,0.1-1.6,0.3c-0.5,0.2-0.9,0.5-1.2,0.8c-0.4,0.4-0.6,0.8-0.9,1.3
	c-0.2,0.5-0.3,1-0.3,1.5c0,0.6,0.1,1.1,0.3,1.6c0.2,0.5,0.5,0.9,0.9,1.3c0.3,0.4,0.8,0.6,1.2,0.9c0.5,0.2,1,0.3,1.6,0.3h4.9
	c0.3,0,0.5,0.1,0.7,0.3c0.2,0.2,0.3,0.4,0.3,0.7c0,0.3-0.1,0.5-0.3,0.7c-0.2,0.2-0.4,0.3-0.7,0.3h-7.7v3h7.7c0.6,0,1.1-0.1,1.5-0.3
	c0.5-0.2,0.9-0.5,1.3-0.9c0.4-0.4,0.7-0.8,0.9-1.3c0.2-0.5,0.3-1,0.3-1.6c0-0.6-0.1-1.1-0.3-1.5c-0.2-0.5-0.5-0.9-0.9-1.3
	c-0.3-0.4-0.8-0.6-1.3-0.8c-0.5-0.2-1-0.3-1.5-0.3H95c-0.3,0-0.5-0.1-0.7-0.3c-0.2-0.2-0.3-0.4-0.3-0.7c0-0.3,0.1-0.5,0.3-0.7
	C94.5,41.3,94.7,41.2,95,41.2"/>
<path class="st2" d="M68.4,42.2c0.3-0.3,0.7-0.6,1.1-0.8c0.8-0.3,1.8-0.3,2.6,0c0.4,0.2,0.8,0.4,1.1,0.8l1.1,1l2.1-2.1l-1-1
	c-0.6-0.6-1.3-1.1-2.1-1.4c-1.6-0.6-3.2-0.6-4.8,0c-0.8,0.3-1.5,0.8-2.1,1.4c-0.6,0.6-1.1,1.3-1.4,2.1c-0.3,0.8-0.5,1.6-0.5,2.4
	c0,0.8,0.2,1.6,0.5,2.4c0.3,0.8,0.8,1.5,1.4,2.1c0.6,0.6,1.3,1.1,2.1,1.4c0.8,0.3,1.6,0.4,2.4,0.4c0.8,0,1.6-0.1,2.4-0.4
	c0.8-0.3,1.5-0.8,2.2-1.4l1-1.1L74.4,46l-1.1,1c-0.3,0.4-0.7,0.6-1.1,0.8c-0.4,0.2-0.9,0.3-1.3,0.3c-1,0-1.8-0.3-2.4-1
	c-0.3-0.3-0.6-0.7-0.8-1.1c-0.2-0.4-0.3-0.9-0.3-1.3c0-0.4,0.1-0.9,0.3-1.3C67.8,42.9,68.1,42.6,68.4,42.2"/>
<path class="st2" d="M114.6,44.7c0,0.5-0.1,0.9-0.3,1.4c-0.2,0.4-0.4,0.8-0.7,1.1c-0.3,0.3-0.7,0.6-1.1,0.7c-0.8,0.3-1.9,0.3-2.7,0
	c-0.4-0.2-0.8-0.4-1.1-0.7c-0.3-0.3-0.6-0.7-0.7-1.1c-0.2-0.4-0.2-0.9-0.2-1.4v-6.4h-3v6.4c0,0.9,0.2,1.7,0.5,2.5
	c0.3,0.8,0.8,1.5,1.4,2.1c0.6,0.6,1.3,1.1,2.1,1.4c0.8,0.3,1.6,0.5,2.5,0.5c0.9,0,1.7-0.2,2.5-0.5c0.8-0.3,1.5-0.8,2.1-1.4
	c0.6-0.6,1.1-1.3,1.4-2.1c0.3-0.8,0.5-1.6,0.5-2.5v-6.4h-3V44.7z"/>
<path class="st2" d="M128.4,33.3v4.9H125c-0.9,0-1.7,0.2-2.5,0.5c-0.8,0.3-1.5,0.8-2.1,1.4c-0.6,0.6-1.1,1.2-1.4,2
	c-0.3,0.8-0.5,1.6-0.5,2.5c0,0.9,0.2,1.7,0.5,2.5c0.3,0.8,0.8,1.5,1.4,2.1c0.6,0.6,1.3,1.1,2.1,1.4c0.8,0.3,1.6,0.5,2.5,0.5
	c0.9,0,1.7-0.2,2.5-0.5c0.8-0.3,1.5-0.8,2-1.4c0.6-0.6,1-1.3,1.4-2.1c0.4-0.8,0.5-1.6,0.5-2.5V33.3L128.4,33.3L128.4,33.3z
	 M128.4,44.7c0,0.5-0.1,0.9-0.3,1.4c-0.2,0.4-0.4,0.8-0.7,1.1c-0.3,0.3-0.7,0.6-1.1,0.7c-0.8,0.3-1.8,0.3-2.7,0
	c-0.4-0.2-0.8-0.4-1.1-0.7c-0.3-0.3-0.6-0.7-0.7-1.1c-0.2-0.4-0.2-0.9-0.2-1.4c0-0.5,0.1-0.9,0.2-1.3c0.2-0.4,0.4-0.8,0.7-1.1
	c0.3-0.3,0.7-0.6,1.1-0.7c0.4-0.2,0.9-0.3,1.3-0.3h3.4V44.7z"/>
<path class="st2" d="M81.2,50.6c0.8,0.3,1.6,0.5,2.5,0.5c0.9,0,1.7-0.2,2.5-0.5c0.8-0.3,1.5-0.8,2-1.4c0.6-0.6,1.1-1.3,1.4-2.1
	c0.3-0.8,0.5-1.6,0.5-2.5c0-0.9-0.2-1.7-0.5-2.5c-0.3-0.8-0.8-1.5-1.4-2c-0.6-0.6-1.3-1.1-2-1.4c-1.5-0.7-3.4-0.7-5,0
	c-0.8,0.3-1.5,0.8-2.1,1.4c-0.6,0.6-1,1.2-1.4,2c-0.3,0.8-0.5,1.6-0.5,2.5c0,0.9,0.2,1.7,0.5,2.5c0.3,0.8,0.8,1.5,1.4,2.1
	C79.7,49.8,80.4,50.3,81.2,50.6 M80.5,43.3c0.2-0.4,0.4-0.8,0.7-1.1c0.3-0.3,0.7-0.6,1.1-0.7c0.4-0.2,0.9-0.3,1.3-0.3
	c0.5,0,0.9,0.1,1.3,0.3c0.4,0.2,0.8,0.4,1.1,0.7c0.3,0.3,0.6,0.7,0.7,1.1c0.2,0.4,0.3,0.8,0.3,1.3S87,45.6,86.8,46
	c-0.2,0.4-0.4,0.8-0.7,1.1c-0.3,0.3-0.7,0.6-1.1,0.7c-0.8,0.3-1.9,0.3-2.7,0c-0.4-0.2-0.8-0.4-1.1-0.7c-0.3-0.3-0.6-0.7-0.7-1.1
	c-0.2-0.4-0.2-0.9-0.2-1.4C80.2,44.2,80.3,43.7,80.5,43.3"/>
<path class="st3" d="M25.5,67.1c0.9,0.5,2.2,0.9,3.7,0.9c1.1,0,2.2-0.2,2.2-1.3c0-2.5-6.3-0.9-6.3-5.8c0-3.2,3.1-4.1,5.8-4.1
	c1.3,0,2.5,0.2,3.4,0.5l-0.2,2.8c-0.9-0.4-2-0.6-3-0.6c-0.9,0-2.4,0.1-2.4,1.2c0,2.2,6.3,0.7,6.3,5.5c0,3.5-2.9,4.4-5.9,4.4
	c-1.2,0-2.8-0.2-4-0.6L25.5,67.1z"/>
<path class="st3" d="M44.7,63.3c-0.6-0.4-1.3-0.6-2.1-0.6c-1.5,0-2.6,1-2.6,2.8c0,1.6,1.3,2.6,2.8,2.6c0.8,0,1.6-0.2,2.1-0.5
	l0.1,2.6c-0.9,0.3-1.9,0.4-2.8,0.4c-3.3,0-5.8-1.9-5.8-5.2c0-3.3,2.5-5.2,5.8-5.2c1,0,2,0.2,2.7,0.6L44.7,63.3z"/>
<path class="st3" d="M45.9,65.4c0-3.3,2.5-5.2,5.8-5.2s5.8,1.9,5.8,5.2c0,3.3-2.5,5.2-5.8,5.2S45.9,68.7,45.9,65.4 M53.9,65.4
	c0-1.5-0.7-2.8-2.2-2.8s-2.2,1.3-2.2,2.8c0,1.5,0.7,2.8,2.2,2.8C53.2,68.2,53.9,66.9,53.9,65.4"/>
<path class="st3" d="M58.1,60.4h2v-2.2l3.4-1.1v3.3H66v2.4h-2.4v3.7c0,1.2,0.3,1.8,1.4,1.8c0.3,0,0.7-0.1,1.1-0.1l0.1,2.2
	c-0.7,0.1-1.3,0.2-2.2,0.2c-3.1,0-3.8-1.4-3.8-3.7v-4.1h-2C58.1,62.8,58.1,60.4,58.1,60.4z"/>
<path class="st3" d="M71.2,58.8h-3.4v-2.5h3.4L71.2,58.8L71.2,58.8z M67.8,60.4h3.4v10h-3.4V60.4z"/>
<path class="st3" d="M80,70.4c0-0.5-0.1-1.1-0.1-1.6h0c-0.8,1.2-1.7,1.8-3.2,1.8c-2,0-3.7-1-3.7-3.1c0-3,3.3-3.4,5.2-3.4
	c0.6,0,1.2,0.1,1.6,0.1c0-1.4-1-1.7-2.3-1.7c-1.1,0-2.2,0.2-3.2,0.8l-0.1-2.3c1.2-0.5,2.5-0.7,4-0.7c2.6,0,4.8,1.1,4.8,4.1V68
	c0,0.8,0,1.6,0.2,2.4L80,70.4L80,70.4z M77.7,68.3c1.3,0,2.1-1.2,2.1-2.4c-0.4,0-0.9-0.1-1.4-0.1c-1.2,0-2.1,0.4-2.1,1.3
	C76.2,67.9,76.8,68.3,77.7,68.3"/>
<path class="st3" d="M85.1,56h3.5v5.7h0c0.9-1.1,2.1-1.5,3.4-1.5c2.8,0,4.3,2.6,4.3,5c0,2.9-1.6,5.4-4.6,5.4c-1.6,0-3-0.9-3.4-2h0
	v1.8h-3.2L85.1,56L85.1,56z M90.6,62.8c-1.3,0-2.1,1.1-2.1,2.6c0,1.4,1,2.5,2.1,2.5c1.3,0,2.1-1.1,2.1-2.7
	C92.7,64,92,62.8,90.6,62.8"/>
<path class="st3" d="M104.3,70.4c0-0.5-0.1-1.1-0.1-1.6h0c-0.8,1.2-1.7,1.8-3.2,1.8c-2,0-3.7-1-3.7-3.1c0-3,3.3-3.4,5.2-3.4
	c0.6,0,1.2,0.1,1.6,0.1c0-1.4-1-1.7-2.3-1.7c-1.1,0-2.2,0.2-3.2,0.8l-0.1-2.3c1.2-0.5,2.5-0.7,4-0.7c2.6,0,4.8,1.1,4.8,4.1V68
	c0,0.8,0,1.6,0.2,2.4L104.3,70.4L104.3,70.4z M101.9,68.3c1.3,0,2.1-1.2,2.1-2.4c-0.4,0-0.9-0.1-1.4-0.1c-1.2,0-2.1,0.4-2.1,1.3
	C100.5,67.9,101.1,68.3,101.9,68.3"/>
<path class="st3" d="M109.4,60.4h3.1v1.8h0c0.7-1.4,2.1-2.1,3.6-2.1c2.7,0,3.8,1.9,3.8,4v6.2h-3.4v-4.8c0-1.9-0.7-2.5-1.6-2.5
	c-1.4,0-2.1,1-2.1,3.1v4.2h-3.4L109.4,60.4L109.4,60.4z"/>
<polygon class="st3" points="122.1,56 125.6,56 125.6,64.6 125.6,64.6 128.5,60.4 132.2,60.4 128.8,65 132.5,70.4 128.4,70.4 
	125.6,65.5 125.6,65.5 125.6,70.4 122.1,70.4 "/>
</svg>
