<svg width="83" height="47" viewBox="0 0 83 47" fill="none" xmlns="http://www.w3.org/2000/svg">
<path d="M23.3519 27C22.5692 27 22 26.2212 22 25.3558V19.6442C22 18.6923 22.6404 18 23.3519 18H57.6481C58.4308 18 59 18.7788 59 19.6442V25.3558C59 26.3077 58.3596 27 57.6481 27H23.3519Z" fill="white"/>
<path d="M83 43.3681C83 44.3129 82.1 45 81.1 45H76.9C75.8 45 75 44.227 75 43.3681V4.6319C75 3.68711 75.9 3 76.9 3H81.1C82.2 3 83 3.773 83 4.6319V43.3681Z" fill="#D0417E"/>
<path d="M7 39.5624C7 40.3947 6.2125 41 5.3375 41H1.6625C0.699998 41 0 40.319 0 39.5624V5.43763C0 4.60532 0.787498 4 1.6625 4H5.3375C6.3 4 7 4.68098 7 5.43763V39.5624Z" fill="#D0417E"/>
<path d="M70 45.5117C70 46.3733 69.1 47 68.1 47H63.9C62.8 47 62 46.295 62 45.5117V1.48833C62 0.626668 62.9 0 63.9 0H68.1C69.2 0 70 0.705001 70 1.48833V45.5117Z" fill="#008B8B"/>
<path d="M19 45.5117C19 46.3733 18.2125 47 17.3375 47H13.6625C12.7 47 12 46.295 12 45.5117V1.48833C12 0.626668 12.7875 0 13.6625 0H17.3375C18.3 0 19 0.705001 19 1.48833V45.5117Z" fill="#008B8B"/>
</svg>
