<svg width="146" height="80" viewBox="0 0 146 80" fill="none" xmlns="http://www.w3.org/2000/svg">
<path d="M23.3519 40C22.5692 40 22 39.2212 22 38.3558V32.6442C22 31.6923 22.6404 31 23.3519 31H57.6481C58.4308 31 59 31.7788 59 32.6442V38.3558C59 39.3077 58.3596 40 57.6481 40H23.3519Z" fill="white"/>
<path d="M83 56.3681C83 57.3129 82.1 58 81.1 58H76.9C75.8 58 75 57.227 75 56.3681V17.6319C75 16.6871 75.9 16 76.9 16H81.1C82.2 16 83 16.773 83 17.6319V56.3681Z" fill="#86BBCE"/>
<path d="M7 52.5624C7 53.3947 6.2125 54 5.3375 54H1.6625C0.699998 54 0 53.319 0 52.5624V18.4376C0 17.6053 0.787498 17 1.6625 17H5.3375C6.3 17 7 17.681 7 18.4376V52.5624Z" fill="#86BBCE"/>
<path d="M70 58.5117C70 59.3733 69.1 60 68.1 60H63.9C62.8 60 62 59.295 62 58.5117V14.4883C62 13.6267 62.9 13 63.9 13H68.1C69.2 13 70 13.705 70 14.4883V58.5117Z" fill="#86BBCE"/>
<path d="M19 58.5117C19 59.3733 18.2125 60 17.3375 60H13.6625C12.7 60 12 59.295 12 58.5117V14.4883C12 13.6267 12.7875 13 13.6625 13H17.3375C18.3 13 19 13.705 19 14.4883V58.5117Z" fill="#86BBCE"/>
<path d="M87.747 13.1H107.244V19.8H95.117V32.865H104.631V39.565H95.117V60H87.747V13.1ZM110.778 13.1H118.148V60H110.778V13.1ZM129.43 19.8H121.725V13.1H144.505V19.8H136.8V60H129.43V19.8Z" fill="white"/>
</svg>
