<svg width="2362" height="2092" viewBox="0 0 2362 2092" fill="none" xmlns="http://www.w3.org/2000/svg">
<path fill-rule="evenodd" clip-rule="evenodd" d="M1647.81 1961.73C1618.05 1957.01 1591.55 1955.56 1591.55 1939.58C1591.55 1933.4 1595.17 1926.88 1600.98 1922.54C1606.08 1918.53 1619.5 1917.08 1628.57 1917.08C1638.02 1917.08 1647.46 1921.8 1653.26 1927.97C1656.88 1932.33 1661.24 1939.23 1661.98 1946.49H1710.26C1709.17 1928.71 1701.55 1911.28 1687.75 1901.47C1674.32 1891.67 1656.89 1879.68 1632.92 1879.68C1610.07 1879.68 1587.56 1880.42 1571.95 1892.03C1556.32 1903.28 1545.08 1922.15 1545.08 1938.5C1545.08 1947.94 1544.37 1959.19 1548 1966.07C1552 1972.97 1563.6 1987.15 1572.67 1992.59C1585.38 1999.85 1615.14 2002.75 1631.48 2007.11C1644.91 2010.37 1661.25 2011.11 1664.89 2024.54C1667.05 2032.52 1664.52 2039.78 1657.27 2044.5C1650.35 2049.21 1639.84 2052.48 1628.22 2052.48C1616.23 2052.48 1604.61 2048.86 1598.8 2041.6C1593.73 2034.7 1590.82 2028.16 1586.82 2017.63H1538.53C1539.62 2039.77 1551.98 2061.56 1567.21 2073.91C1582.09 2085.89 1602.07 2091.69 1627.46 2091.69C1652.9 2091.69 1675.04 2087.33 1691.38 2075.71C1707.33 2064.1 1716.05 2042.32 1716.05 2024.54C1716.05 2009.29 1711.69 1997.31 1704.8 1987.88C1690.65 1969.36 1665.24 1964.29 1647.81 1961.73ZM1018.33 2085.9H1067.34V1882.59H1018.33V2085.9ZM1018.33 1868.8H1067.7V1819.79H1018.33V1868.8ZM946.81 1909.46C928.665 1895.29 905.436 1885.49 880.016 1884.77H877.473C821.198 1884.77 775.466 1930.51 775.466 1986.42C775.466 2042.69 821.198 2088.79 877.473 2088.79H880.016C905.423 2088.44 928.652 2078.26 946.46 2060.85L946.81 2085.92H993.28V1819.8H946.81V1909.46ZM880.379 2047.05H880.016C863.946 2047.02 848.543 2040.62 837.181 2029.26C825.818 2017.9 819.422 2002.49 819.395 1986.42C819.395 1953.39 846.618 1925.8 880.016 1925.8H880.379C913.413 1925.8 940.999 1953.03 940.999 1986.42C940.999 2019.82 913.413 2047.05 880.379 2047.05ZM1251.02 1908.72C1232.88 1894.56 1209.64 1884.75 1184.22 1884.04H1181.68C1125.42 1884.04 1079.31 1930.15 1079.31 1986.05C1079.31 2042.32 1125.42 2088.43 1181.68 2088.43H1184.22C1209.63 2087.71 1232.49 2077.54 1250.67 2060.11V2085.16H1297.12V1819.44H1250.67L1251.02 1908.72ZM1184.23 2046.68C1150.84 2046.68 1123.25 2019.1 1123.25 1985.7C1123.25 1952.65 1150.84 1925.44 1184.23 1925.44C1217.63 1925.44 1245.23 1952.66 1245.23 1985.7C1245.22 2019.1 1217.63 2046.68 1184.23 2046.68ZM710.112 1882.59V1901.84C700.67 1891.67 696.325 1888.41 685.43 1884.4C675.625 1880.79 662.188 1877.5 649.115 1877.14H646.949C631.333 1877.14 617.546 1879.67 605.199 1884.75C593.215 1889.85 581.957 1897.83 571.802 1908.72C562.723 1918.18 555.473 1929.77 550.026 1942.5C545.212 1955.25 542.751 1968.78 542.763 1982.42C542.763 2013.28 552.931 2039.06 573.255 2059.02C593.228 2079.34 618.636 2089.88 649.128 2089.88H649.491C661.838 2089.88 675.262 2086.25 686.156 2082.25C697.038 2078.25 705.04 2074.98 710.112 2067.73V2086.25L757.309 2085.9L756.945 1882.24L710.112 1882.59ZM649.491 2043.78H649.128C641.209 2043.8 633.364 2042.25 626.044 2039.23C618.724 2036.21 612.073 2031.77 606.473 2026.17C600.874 2020.57 596.436 2013.92 593.415 2006.6C590.394 1999.28 588.85 1991.44 588.87 1983.52C588.891 1967.54 595.246 1952.23 606.542 1940.93C617.838 1929.64 633.153 1923.28 649.128 1923.26H649.491C682.525 1923.26 709.748 1950.49 709.748 1983.52C709.728 1999.49 703.373 2014.81 692.077 2026.11C680.781 2037.4 665.466 2043.76 649.491 2043.78ZM1480.1 1881.86L1480.45 1901.1C1471.02 1891.3 1466.31 1888.02 1455.78 1883.67C1444.1 1879.54 1431.86 1877.22 1419.48 1876.78H1417.3C1401.67 1876.78 1387.89 1879.31 1375.55 1884.04C1363.19 1889.14 1351.95 1897.48 1342.14 1908.01C1332.71 1917.45 1325.45 1929.06 1320.35 1942.15C1315.39 1954.87 1312.81 1968.41 1312.73 1982.07C1312.73 2012.57 1323.26 2038.33 1343.61 2058.67C1363.19 2078.63 1388.97 2089.16 1419.48 2089.16C1432.18 2089.16 1445.6 2085.9 1456.13 2081.54C1467.03 2077.54 1475.38 2074.27 1480.45 2067.02V2085.54L1527.65 2085.18L1526.93 1881.88H1480.1V1881.86ZM1419.48 2043.41C1386.07 2043.05 1358.83 2016.18 1358.83 1982.78C1358.83 1949.75 1386.07 1922.89 1419.48 1922.52C1452.86 1922.52 1480.1 1949.75 1480.1 1982.78C1480.1 2016.19 1452.86 2043.41 1419.48 2043.41ZM1757.1 1774.41C1756.72 1774.41 1756.36 1774.06 1756.36 1774.06C1724.76 1774.06 1699 1799.83 1699 1831.41C1699 1862.99 1724.76 1888.42 1756.36 1888.42H1757.1C1788.3 1888.05 1813.71 1862.64 1813.71 1831.41C1813.71 1800.18 1788.3 1774.77 1757.1 1774.41ZM1757.1 1879.32C1750.8 1879.33 1744.57 1878.1 1738.75 1875.69C1732.93 1873.29 1727.65 1869.76 1723.19 1865.31C1718.74 1860.86 1715.21 1855.57 1712.81 1849.76C1710.4 1843.94 1709.17 1837.7 1709.17 1831.41C1709.17 1805.64 1730.57 1783.85 1757.1 1784.21C1783.59 1784.21 1804.99 1805.63 1804.99 1831.77C1804.99 1857.91 1783.59 1879.32 1757.1 1879.32Z" fill="white"/>
<path fill-rule="evenodd" clip-rule="evenodd" d="M1773.79 1840.84C1771.7 1838.78 1769.39 1836.95 1766.9 1835.4C1772.35 1834.67 1776.68 1832.49 1779.23 1829.22C1781.76 1826.69 1783.59 1822.69 1783.59 1818.32C1783.59 1814.7 1782.13 1811.06 1780.67 1808.17C1778.79 1805.63 1776.29 1803.63 1773.4 1802.36C1770.51 1801.27 1765.77 1800.92 1758.89 1800.92H1732.39V1862.98H1745.1V1836.84H1747.28C1750.17 1836.84 1752.35 1837.21 1753.79 1837.57C1755.25 1837.95 1755.99 1838.66 1757.08 1839.76C1757.08 1840.11 1757.43 1840.11 1757.43 1840.49C1758.87 1841.22 1761.05 1844.48 1764.32 1849.2L1773.39 1862.98H1788.27L1780.65 1851.01C1777.77 1846.29 1775.23 1842.29 1773.79 1840.84ZM1757.1 1827.07H1745.11V1811.45H1757.1C1760.71 1811.45 1763.26 1811.45 1763.98 1811.81C1765.77 1811.92 1767.45 1812.7 1768.69 1813.99C1770.13 1815.07 1770.52 1816.9 1770.52 1818.7C1770.52 1820.5 1770.14 1822.71 1769.05 1823.78C1767.99 1824.52 1766.9 1825.6 1765.79 1826.33C1764.35 1826.69 1761.45 1826.69 1757.1 1827.07ZM1013.6 1499.6H599.401C723.185 1576.2 868.044 1627.03 1032.85 1661.16L1013.6 1499.6ZM1329.44 1499.97L1304.75 1651.7C1470.3 1621.21 1616.23 1573.3 1742.93 1499.97H1329.44ZM1281.87 1499.24L1054.26 1499.59C1086.21 1566.02 1126.88 1621.94 1173.34 1675.31C1219.08 1620.85 1249.58 1564.58 1281.87 1499.24ZM1894.32 1398.32L445.476 1397.58C397.19 1359.1 364.519 1339.14 325.674 1287.95H2015.91C1978.17 1329.35 1934.98 1366.73 1894.32 1398.32ZM2110.29 1162.35L237.817 1163.08C212.773 1128.23 184.083 1079.23 166.302 1040.38H2181.83C2162.96 1083.94 2137.52 1124.23 2110.29 1162.35ZM770.369 907.509L116.563 907.872C56.6685 769.549 18.9135 626.882 0.755859 449.728C337.658 509.622 597.586 647.945 770.369 907.509ZM1440.17 908.598H902.518C890.534 562.63 986.38 211.577 1171.52 0.299744C1359.57 206.143 1456.87 555.73 1440.17 908.598ZM2237 907.872L1570.47 908.235C1754.53 649.397 2018.81 503.099 2361.15 451.181C2339.75 624.353 2299.8 771.365 2237 907.872Z" fill="white"/>
</svg>
