<svg width="200" height="200" viewBox="0 0 200 200" fill="none" xmlns="http://www.w3.org/2000/svg">
<path d="M75.9 104.9C74.8 104.9 74 104 74 103V96.4C74 95.3 74.9 94.5 75.9 94.5H124.1C125.2 94.5 126 95.4 126 96.4V103C126 104.1 125.1 104.9 124.1 104.9H75.9Z" fill="white"/>
<path d="M147.4 122.8C147.4 123.9 146.5 124.7 145.5 124.7H141.3C140.2 124.7 139.4 123.8 139.4 122.8V77.7C139.4 76.6 140.3 75.8 141.3 75.8H145.5C146.6 75.8 147.4 76.7 147.4 77.7V122.8Z" fill="white"/>
<path d="M60.7002 121.9C60.7002 123 59.8002 123.8 58.8002 123.8H54.6002C53.5002 123.8 52.7002 122.9 52.7002 121.9V76.8C52.7002 75.7 53.6002 74.9 54.6002 74.9H58.8002C59.9002 74.9 60.7002 75.8 60.7002 76.8V121.9Z" fill="white"/>
<path d="M136.7 128.1C136.7 129.2 135.8 130 134.8 130H130.6C129.5 130 128.7 129.1 128.7 128.1V71.9C128.7 70.8 129.6 70 130.6 70H134.8C135.9 70 136.7 70.9 136.7 71.9V128.1Z" fill="white"/>
<path d="M71.5 128.1C71.5 129.2 70.6 130 69.6 130H65.4C64.3 130 63.5 129.1 63.5 128.1V71.9C63.5 70.8 64.4 70 65.4 70H69.6C70.7 70 71.5 70.9 71.5 71.9V128.1Z" fill="white"/>
<path d="M100 17L171.9 58.5V141.5L100 183L28.1001 141.5V58.5L100 17ZM100 12C99.1001 12 98.3001 12.2 97.5001 12.7L25.6001 54.1C24.1001 55 23.1001 56.6 23.1001 58.4V141.4C23.1001 143.2 24.1001 144.8 25.6001 145.7L97.5001 187.2C98.3001 187.6 99.1001 187.9 100 187.9C100.9 187.9 101.7 187.7 102.5 187.2L174.4 145.7C175.9 144.8 176.9 143.2 176.9 141.4V58.4C176.9 56.6 175.9 55 174.4 54.1L102.5 12.6C101.8 12.2 100.9 12 100 12Z" fill="white"/>
<path d="M100.5 8.49415L179.506 54.0956V145.298L100.5 190.9L21.4941 145.298V54.0956L100.5 8.49415ZM100.5 3C99.5111 3 98.632 3.21977 97.7529 3.76918L18.7471 49.2607C17.0988 50.2497 16 52.0078 16 53.9857V145.189C16 147.166 17.0988 148.925 18.7471 149.914L97.7529 195.515C98.632 195.955 99.5111 196.284 100.5 196.284C101.489 196.284 102.368 196.064 103.247 195.515L182.253 149.914C183.901 148.925 185 147.166 185 145.189V53.9857C185 52.0078 183.901 50.2497 182.253 49.2607L103.247 3.6593C102.478 3.21977 101.489 3 100.5 3Z" fill="white"/>
</svg>
