<svg width="534" height="120" viewBox="0 0 534 120" fill="none" xmlns="http://www.w3.org/2000/svg">
<path fill-rule="evenodd" clip-rule="evenodd" d="M104.219 0.677992C105.405 0.221385 106.604 0 107.813 0C108.674 0 109.544 0.115305 110.41 0.341302C112.562 0.954724 114.297 2.14928 115.621 3.92036C116.944 5.64532 117.604 7.61473 117.604 9.83319V109.885C117.604 112.602 116.637 114.908 114.71 116.799C112.841 118.736 110.552 119.714 107.854 119.714C105.153 119.714 102.836 118.736 100.908 116.799C98.9845 114.908 98.0183 112.602 98.0183 109.885V45.1257C98.0183 45.1257 66.7742 97.0497 66.6506 97.2481C65.7485 98.747 64.3335 99.7848 62.7674 100.504C61.5631 101.067 60.2168 101.381 58.8064 101.381C57.3868 101.381 56.0451 101.067 54.8362 100.504C53.2747 99.7848 51.846 98.7793 50.9576 97.2573C50.8019 96.999 19.5899 45.1257 19.5899 45.1257V109.885C19.5899 112.602 18.6283 114.908 16.6958 116.799C14.768 118.736 12.4509 119.714 9.75832 119.714C7.052 119.714 4.76697 118.736 2.89407 116.799C0.966216 114.908 0 112.602 0 109.885V9.83319C0 7.61473 0.659408 5.64532 1.9828 3.92036C3.3062 2.14928 5.0463 0.954724 7.19396 0.341302C8.06859 0.115305 8.93406 0 9.79496 0C11.0039 0 12.199 0.221385 13.3896 0.677992C15.4274 1.50819 17.0301 2.86417 18.1841 4.75978L58.8064 72.3561L99.4195 4.75978C100.578 2.86417 102.181 1.50819 104.219 0.677992ZM199.023 5.63149C200.177 3.18702 202.256 0 207.898 0C213.013 0 215.623 3.18702 216.781 5.63149L263.705 105.688C264.868 108.137 264.991 110.651 264.085 113.234C263.178 115.817 261.511 117.694 259.084 118.865C256.662 120.032 254.171 120.157 251.611 119.248C249.051 118.33 247.187 116.647 246.029 114.202L207.902 32.9403L169.766 114.202C168.608 116.647 166.753 118.33 164.193 119.248C161.629 120.157 159.133 120.032 156.711 118.865C154.284 117.694 152.617 115.817 151.71 113.234C150.804 110.651 150.932 108.137 152.091 105.688L199.023 5.63149ZM310.439 17.5494C322.08 5.84826 336.069 0 352.422 0C367.771 0 381.129 5.20255 392.49 15.6215C394.486 17.4664 395.539 19.7586 395.649 22.5075C395.755 25.2517 394.903 27.627 393.067 29.6472C391.244 31.7134 388.973 32.8065 386.253 32.9218C383.537 33.0279 381.184 32.1608 379.187 30.3159C371.65 23.37 362.734 19.9016 352.422 19.9016C341.505 19.9016 332.163 23.8174 324.406 31.6581C316.649 39.4942 312.77 48.9261 312.77 59.9539C312.77 71.0739 316.649 80.5012 324.406 88.3419C332.163 96.178 341.505 100.094 352.422 100.094C362.734 100.094 371.65 96.63 379.187 89.6794C381.184 87.8392 383.537 86.9675 386.253 87.0828C388.973 87.1935 391.244 88.282 393.067 90.3528C394.903 92.3776 395.755 94.7483 395.649 97.4925C395.539 100.237 394.486 102.534 392.49 104.379C381.129 114.793 367.771 120 352.422 120C336.069 120 322.08 114.152 310.439 102.451C298.858 90.6941 293.07 76.5578 293.07 60.0415C293.07 43.4422 298.858 29.3059 310.439 17.5494ZM516.999 2.87801C518.899 0.959336 521.175 0 523.836 0C526.492 0 528.772 0.959336 530.672 2.87801C532.573 4.80129 533.525 7.10739 533.525 9.79629V110.204C533.525 112.893 532.573 115.203 530.672 117.117C528.772 119.041 526.492 120 523.836 120C521.175 120 518.899 119.041 516.999 117.117C515.094 115.203 514.151 112.893 514.151 110.204V70.7879H454.318V110.204C454.318 112.893 453.393 115.203 451.553 117.117C449.652 119.041 447.372 120 444.716 120C442.051 120 439.775 119.041 437.879 117.117C435.979 115.203 435.026 112.893 435.026 110.204V9.79629C435.026 7.10739 435.979 4.80129 437.879 2.87801C439.775 0.959336 442.051 0 444.716 0C447.372 0 449.652 0.959336 451.553 2.87801C453.393 4.80129 454.318 7.10739 454.318 9.79629V51.2783H514.151V9.79629C514.151 7.10739 515.094 4.80129 516.999 2.87801Z" fill="#613DD2"/>
</svg>
